<svg width="548" height="540" viewBox="0 0 548 540" fill="none" xmlns="http://www.w3.org/2000/svg">
  <g clip-path="url(#clip0_2_2)" filter="url(#filter0_d_2_2)">
    <path d="M174.16 380.304C162.064 380.304 150.832 377.808 140.464 372.816C130.096 367.632 121.744 360.432 115.408 351.216L132.112 331.632C143.248 347.568 157.264 355.536 174.16 355.536C185.488 355.536 194.032 352.08 199.792 345.168C205.744 338.256 208.72 328.08 208.72 314.64V201.456H135.856V176.4H237.232V313.2C237.232 335.472 231.856 352.272 221.104 363.6C210.544 374.736 194.896 380.304 174.16 380.304ZM332.272 201.456H263.152V176.4H429.904V201.456H360.784V378H332.272V201.456Z" fill="#D00027" />
    <path d="M534.384 254.568V277.608H524.592C516.144 277.608 511.92 282.408 511.92 292.008V358.248C511.92 372.264 508.176 382.824 500.688 389.928C493.392 397.224 482.544 400.872 468.144 400.872H455.472V378.12H462.384C476.976 378.12 484.272 370.632 484.272 355.656V292.584C484.272 284.52 485.424 278.568 487.728 274.728C490.224 270.696 494.256 267.816 499.824 266.088C494.256 264.36 490.224 261.576 487.728 257.736C485.424 253.704 484.272 247.656 484.272 239.592V176.52C484.272 161.544 476.976 154.056 462.384 154.056H455.472V131.304H468.144C482.544 131.304 493.392 134.952 500.688 142.248C508.176 149.352 511.92 159.912 511.92 173.928V240.168C511.92 249.768 516.144 254.568 524.592 254.568H534.384Z" fill="black" />
    <path d="M12.616 254.568V277.608H22.408C30.856 277.608 35.08 282.408 35.08 292.008V358.248C35.08 372.264 38.824 382.824 46.312 389.928C53.608 397.224 64.456 400.872 78.856 400.872H91.528V378.12H84.616C70.024 378.12 62.728 370.632 62.728 355.656V292.584C62.728 284.52 61.576 278.568 59.272 274.728C56.776 270.696 52.744 267.816 47.176 266.088C52.744 264.36 56.776 261.576 59.272 257.736C61.576 253.704 62.728 247.656 62.728 239.592V176.52C62.728 161.544 70.024 154.056 84.616 154.056H91.528V131.304H78.856C64.456 131.304 53.608 134.952 46.312 142.248C38.824 149.352 35.08 159.912 35.08 173.928V240.168C35.08 249.768 30.856 254.568 22.408 254.568H12.616Z" fill="black" />
  </g>
  <defs>
    <filter id="filter0_d_2_2" x="0" y="0" width="548" height="548" filterUnits="userSpaceOnUse" color-interpolation-filters="sRGB">
      <feFlood flood-opacity="0" result="BackgroundImageFix" />
      <feColorMatrix in="SourceAlpha" type="matrix" values="0 0 0 0 0 0 0 0 0 0 0 0 0 0 0 0 0 0 127 0" result="hardAlpha" />
      <feOffset dy="4" />
      <feGaussianBlur stdDeviation="2" />
      <feComposite in2="hardAlpha" operator="out" />
      <feColorMatrix type="matrix" values="0 0 0 0 0 0 0 0 0 0 0 0 0 0 0 0 0 0 0.25 0" />
      <feBlend mode="normal" in2="BackgroundImageFix" result="effect1_dropShadow_2_2" />
      <feBlend mode="normal" in="SourceGraphic" in2="effect1_dropShadow_2_2" result="shape" />
    </filter>
    <clipPath id="clip0_2_2">
      <rect width="540" height="540" fill="white" transform="translate(4)" />
    </clipPath>
  </defs>
</svg>