<svg width="540" height="540" viewBox="0 0 540 540" fill="none" xmlns="http://www.w3.org/2000/svg">
<g clip-path="url(#clip0_2_2)">
<path d="M163.5 154H235.8V337C235.8 348.2 233.9 358.1 230.1 366.7C226.5 375.3 221.5 382.5 215.1 388.3C208.7 394.3 201 398.9 192 402.1C183.2 405.3 173.7 407 163.5 407.2V383.5C177.3 382.7 188.6 378.3 197.4 370.3C206.4 362.3 210.9 350.9 210.9 336.1V177.7H163.5V154ZM301.664 340.3H327.464V177.7H280.364V200.2H256.664V154H422.564V200.2H398.864V177.7H352.364V340.3H374.264V364H301.664V340.3Z" fill="#6b7280"/>
<path d="M303.5 34.3523L472.327 131.825C486.869 140.22 495.827 155.736 495.827 172.528V367.472C495.827 384.264 486.869 399.78 472.327 408.175L303.5 505.648C288.958 514.043 271.042 514.043 256.5 505.648L87.6731 408.175C73.1313 399.78 64.1731 384.264 64.1731 367.472V172.528C64.1731 155.736 73.1313 140.22 87.6731 131.825L256.5 34.3523C271.042 25.9566 288.958 25.9566 303.5 34.3523Z" stroke="#3b82f6" stroke-width="36"/>
</g>
<defs>
<clipPath id="clip0_2_2">
<rect width="540" height="540" fill="white"/>
</clipPath>
</defs>
</svg>
